<?xml version="1.0" encoding="UTF-8"?>
<svg id="Layer_1" xmlns="http://www.w3.org/2000/svg" version="1.1" viewBox="0 0 2048 2048">
  <!-- Generator: Adobe Illustrator 30.1.0, SVG Export Plug-In . SVG Version: 2.1.1 Build 136)  -->
  <defs>
    <style>
      .st0 {
        fill: #669dfc;
      }

      .st1 {
        fill: #397ae9;
      }
    </style>
  </defs>
  <path class="st0" d="M1079.6,318.6c22.3-1.4,84.1,5.2,109.2,9.5,100,17.1,194.2,54.8,278,111.7,1.8,1.2,5.5,5.3,18,13.3,13.9,8.9,26.2,19.6,38,30.4l26.6,24.5c17.4,16,33.2,32.3,48.7,49s8.9,7.5,12.9,12.8c36,47.3,63.4,82.4,90.1,136.8l16.8,34.3c21.6,44.1,52.3,158,54.8,204.6l2.8,52.9v12.7c0,28-1.2,55.3-2.7,83.2-.1,2.3.5,3.7,1,5s-5.1,31.9-4.9,27.6c-.7,20.8-20.4,98.9-28.6,120.8l-15.7,41.7c-7.2,19.2-16,36.3-25.5,54.6-19.4,37.1-40.9,71.6-66.8,104.6-10.8,13.7-20.1,27.2-31.9,39.9-3.7,4-5.4,8.8-7.5,13.1,0-1.2-1.6-3.4-1.8-3.7-24.5,26-49.5,49.8-76.3,71.5-52.4,42.4-110.7,78-173.4,104.7-39.4,16.7-78.4,30.2-119.3,37.9s-3.1-.5-3.2,1.4c-.5,0-1,0-1.5,0-5.3-.4-10,2.7-15.8,3.9-29.7,6-59.2,8.2-89,11.4-1,.1-.7,3.7-.9,4-1.1-1.8-3.7-2.9-6.3-2.9l-70.5-.8c-48.1-.6-94-11.2-140.7-23.4-47-12.3-91-29.7-134.1-51.5-12-6.1-18.3,6-24.5,6.6,3.4-5.5,10.1-7.2,16.4-12.2-31.1-15.1-59.4-34.7-88.2-53.3-11.3-7.3-21.8-16-32.5-25.1l-24.5-20.5-31.7-30.5-18.3-18.2c-5.1-5-9-11.9-14.4-17.9-39.2-43-68.7-91.4-97.6-140.7-4.7-8-8.1-17-12.4-26-16.7-35.1-29.5-71-39.8-108.5-6.2-22.9-16.1-70.7-18.4-92.5-6-56.4-8.1-113.7-.8-170.8l2.5-19.8c9.3-73.3,32.7-150.3,67.2-215.7,30.5-57.7,65.3-112.7,110.2-160l14.8-15.5c19.3-20.3,22.3-23.5,43.7-41.6l9.6-8.1c46.8-39.6,97-73.7,153-99.4,46.1-21.2,93-37.2,142.5-47.5,21.9-4.6,42.4-10,63.6-12.3,30.5-3.3,61.3-5.8,92.8-6,2.8,0,4.6.2,6.4,0ZM1135,550l-50.1-111.4c-1.9-2.7-4.6-3.1-6.9-2.5s-4.2,1.4-5.3,3.7l-49.9,110.8,112.1-.5ZM708.4,741.3l78.7-82-107.8-39.1c-3.3-1.3-7.2-2.8-9.8-.9-1.9,1.3-6.4,4.1-5,7.6l43.9,114.5ZM1006,782.6c-1.9-3.4-3.8-4.1-6.2-5.2l-102.9-43.9c-3.6-1.5-7.6-.3-9.2,1.7s-2.8,5.5-1.7,8.9l37.4,113.1,82.7-74.7ZM1486.6,940.8c21.1,20.4,54.2,25,79.8,8.6,34.7-22.2,41.9-67.4,16.4-98.2-25.1-30.3-70.6-31.6-98.8-3.3-23.5,23.5-23.9,67.2,2.6,92.9ZM1224.3,1076.3c-10.2-35.9-9.7-70.5-1-104.4-10.4-7.6-21.2-11-31.8-16.9l-97.3-47.3c-20.1-9.8-40.5.2-49.7,19.2-27,55.8-27.6,136.8-1.1,192.2,10.5,20.4,31.7,30.1,52.5,19.9l128.5-62.7ZM618.7,1080.7l.2-113.3-112.3,47.7c-3.7,2.5-5.1,5.5-4.6,9.5s2.7,6.2,6.4,7.8l110.3,48.3ZM899.4,1314.3l107.5-47.3-83.5-75.5-36.3,110.2c-1.1,5.2-3,8,.7,11.2,3.2,2.7,6.4,4.1,11.7,1.4ZM787.8,1387.7l-57.1-59.4c-7.2-7.5-13.2-15.3-21.9-21.6l-44.5,113c-1.4,3.5,2,6.3,3.5,7.7s5.5,1.6,8.3.6l111.6-40.3ZM1454.6,1478.6c3.6,1.8,7.8-1.2,8.8-2.8s1.8-3.6,1.1-6.3l-30.6-117.4c-5.6,1.3-7.5,6.8-11.3,7.9s-5.6,4.8-8.9,7.6l-68,57.3,108.9,53.8ZM1086.1,1607.7l48.8-109.1h-112.2c0,.1,50.9,111.8,50.9,111.8,2.2,2.3,4.3,2.8,6.8,2.5s3.6-2,5.7-5.2Z"/>
  <path class="st1" d="M375.8,924.7l-2.5,19.8c-7.2,57.1-5.1,114.3.8,170.8l-4.5-6.8c-33.7,20.5-66.5,39.7-101.2,57.6-7.1,3.7-18.2,3.2-25.1.4-8.3-3.3-13.8-11.6-17.1-19.7-29-72.8-28.4-169.5-1.5-243.1,5.5-15.1,18.8-27.9,35.3-24.5s27.7,12.3,40.9,20l69.6,40.7,5.2-15.2Z"/>
  <path class="st1" d="M556.7,1500.9c-2.3-2.2-5.4-1.8-8.9-1.2-11.4,2-22.6,2.9-34.3,4.1-28.8,3-66.1,16-88.7-9.9-13.1-15-19.8-35.5-13.7-54l20.7-62.4c2.4-7.1,2.8-14.6,6.1-21.2s5.5-9.1,6.8-13.9c28.8,49.3,58.4,97.7,97.6,140.7,5.5,6,9.4,12.9,14.4,17.9Z"/>
  <path class="st1" d="M553.2,549c-44.9,47.2-79.7,102.3-110.2,160,1.2-4.6-.4-8.9-2.6-13.5-5.2-11-8.4-22.4-12.4-34l-18.5-53.3c-3.6-10.5-3-21.5.5-31.3,9.9-28,36-42.2,65.2-38l56.3,8c7.6,1.1,14.5,2.7,21.6,2.1Z"/>
  <path class="st1" d="M1773.8,1099.4c-.5-1.4-1.1-2.7-1-5,1.5-27.9,2.7-55.2,2.7-83.2v-12.7s-2.8-52.9-2.8-52.9c1,.9.9,2.4,1.9,4.7,18.4-12.9,31.6-23.9,53.6-12.1,7.7,4.1,13.2,13.4,15.6,24.2,6,27.1-41.4,56.1-33.7,65.2l24.2,28.7c7.3,8.6,11.9,19.8,9.6,31.5-2.1,10.6-10.4,19.7-20.5,23.9-13.3,5.5-27.3.7-38.8-6.9s-6.9-5.1-10.8-5.3Z"/>
  <path class="st1" d="M1217.4,1713.3c-1.7,2.1-4.8,1.9-7.6,4.1l-16.8,48.5c-5,14.4-8.3,28.8-15.1,41.7-5.9,5.4-13.3,6.4-18.6.2-9.9-11.7-16.7-25.4-24.9-38.6l-22.7-36.6c.2-.2-.2-3.9.9-4,29.8-3.2,59.3-5.4,89-11.4s10.5-4.3,15.8-3.9Z"/>
  <path class="st1" d="M1592.9,1501.7c-.1,2.8,5.3,16.9,6.5,21.4l16.1,60.8c1.3,4.8,1.4,9.1-1.2,12.5-9,11.7-28.8-.7-42.7-7-12.9-5.9-25.6-10.5-38.6-15.6-6.2-2.4-11.9-6.1-18.2-4.4,26.8-21.7,51.9-45.5,76.3-71.5.2.3,1.9,2.5,1.8,3.7Z"/>
  <path class="st1" d="M1598,557c-15.5-16.7-31.3-33.1-48.7-49l-26.6-24.5c26-8.9,54.4-24.5,80.6-33.3,7.1-2.4,15.1,3.2,15,11.2-.2,16.1-5.7,30.9-10.1,46.2l-11.2,38.9c-1.2,4-1.3,7.6,1.1,10.5Z"/>
  <path class="st1" d="M735.5,1660.6c-.4,0-1-.1-1.4,0-7.1,2.9-14,7.2-19.4,12.6-.3.1-.8.2-1.1.2-2.9-.4-16.1,9.1-16.3,11.2-.4,0-1,0-1.4,0-4.3,1.4-10.4,3.3-11.6,7.9-.4.2-.9,0-1.4,0-1.7.3-3.6.5-5.6,2.6-4.3,4.5-15.6,6.5-18.6-.5s-1.3-15.4-.5-22.3c.9-7.8,7.1-63.2,7.1-64.8,0-4.3,0-8.4-1.6-12.5,28.8,18.6,57.2,38.2,88.2,53.3-6.3,5-13,6.7-16.4,12.2Z"/>
  <path class="st1" d="M1079.6,318.6c-1.8.1-3.6,0-6.4,0-31.5.2-62.3,2.7-92.8,6,5.8-16.1,10.7-29.2,17.4-46.1l12.8-31.9c2.1-5.4,4.4-9.4,10.2-10.3s10.9.8,13.8,6.1c6.4,11.9,13.8,23.3,19.6,35.8s5,16.3,12.7,21.4c3.3,9,4.8,16.9,12.9,19.1Z"/>
  <path class="st0" d="M683,1692.6c-4.7,5.1-12.1,10.8-18.9,8.5-7.5-2.5-10.8-7.9-10-15l3.4-32,3.4-28.9c.7-6.3,3-12.3,4.5-17.6,0,1.6-6.2,57-7.1,64.8-.8,6.9-2.3,15.7.5,22.3s14.4,5,18.6.5c2-2.1,3.9-2.3,5.6-2.6Z"/>
  <path class="st0" d="M714.7,1673.3c5.5-5.4,12.3-9.7,19.4-12.6,1,1.9-18.6,12.3-19.4,12.6Z"/>
  <path class="st0" d="M713.6,1673.4c1.9,3.5-12.2,7-16.3,11.2.2-2.1,13.3-11.6,16.3-11.2Z"/>
  <path class="st0" d="M696,1684.7c.8,1.2-.4,2.1-1.8,2.8l-9.9,5.1c1.2-4.6,7.4-6.5,11.6-7.9Z"/>
  <path class="st1" d="M1222,1712c-.5,1.3-2,1.4-3.2,1.4.1-1.8,2-1.1,3.2-1.4Z"/>
  <path class="st1" d="M1224.3,1076.3l-128.5,62.7c-20.8,10.2-42,.5-52.5-19.9-26.5-55.4-25.8-136.4,1.1-192.2,9.2-19,29.6-28.9,49.7-19.2l97.3,47.3c10.7,6,21.4,9.3,31.8,16.9-8.8,33.9-9.3,68.5,1,104.4Z"/>
  <path class="st1" d="M1486.6,940.8c-26.6-25.7-26.1-69.4-2.6-92.9,28.3-28.3,73.8-27,98.8,3.3,25.5,30.8,18.3,76-16.4,98.2-25.6,16.4-58.7,11.8-79.8-8.6Z"/>
  <path class="st1" d="M618.7,1080.7l-110.3-48.3c-3.8-1.6-6.1-5.2-6.4-7.8-.5-4,1-7,4.6-9.5l112.3-47.7-.2,113.3Z"/>
  <path class="st1" d="M1454.6,1478.6l-108.9-53.8,68-57.3c3.3-2.8,3.9-6.1,8.9-7.6s5.7-6.6,11.3-7.9l30.6,117.4c.7,2.8-.2,5-1.1,6.3s-5.2,4.6-8.8,2.8Z"/>
  <path class="st1" d="M1006,782.6l-82.7,74.7-37.4-113.1c-1.1-3.4,0-6.7,1.7-8.9s5.7-3.3,9.2-1.7l102.9,43.9c2.4,1.1,4.3,1.8,6.2,5.2Z"/>
  <path class="st1" d="M787.8,1387.7l-111.6,40.3c-2.8,1-6.6,1-8.3-.6s-4.9-4.3-3.5-7.7l44.5-113c8.7,6.4,14.7,14.1,21.9,21.6l57.1,59.4Z"/>
  <path class="st1" d="M899.4,1314.3c-5.3,2.7-8.5,1.3-11.7-1.4-3.7-3.2-1.8-6-.7-11.2l36.3-110.2,83.5,75.5-107.5,47.3Z"/>
  <path class="st1" d="M708.4,741.3l-43.9-114.5c-1.3-3.5,3.2-6.2,5-7.6,2.5-1.8,6.5-.3,9.8.9l107.8,39.1-78.7,82Z"/>
  <path class="st1" d="M1135,550l-112.1.5,49.9-110.8c1-2.3,3.8-3.3,5.3-3.7,2.3-.7,5-.2,6.9,2.5l50.1,111.4Z"/>
  <path class="st1" d="M1086.1,1607.7c-2.1,3.2-3.6,5-5.7,5.2s-4.6-.2-6.8-2.5l-50.9-111.7h112.2c0-.1-48.8,109-48.8,109Z"/>
</svg>